PathFileType  4	(X/Y/Z) C:\Users\hpl\Documents\MyRepositories\mocap-processing\Data\treadmill\Subject1\Edited\
DataRate	CameraRate	NumFrames	NumMarkers	Units	OrigDataRate	OrigDataStartFrame	OrigNumFrames
   50.0		   50.0		   10		     34		 mm	   50.0	      2362	   3148
Frame#	Time	r_knee			r_shank(antsup)			r_ankle			r_calc			r_5meta			r_toe			L_knee			L_shank(ant_sup)			L_ankle			L_calc			L_5meta			L_toe			r_sh2			r_sh3			r_sh4			L_sh2			L_sh3			r_thigh1			r_thigh2			r_thigh3			r_thigh4			r_thigh5			L_thigh1			L_thigh2			L_thigh3			L_thigh4			r.ASIS			r.PSIS			L.ASIS			L.PSIS			C7			R_Shoulder			L_Shoulder			Sternum			
		X1	Y1	Z1	X2	Y2	Z2	X3	Y3	Z3	X4	Y4	Z4	X5	Y5	Z5	X6	Y6	Z6	X7	Y7	Z7	X8	Y8	Z8	X9	Y9	Z9	X10	Y10	Z10	X11	Y11	Z11	X12	Y12	Z12	X13	Y13	Z13	X14	Y14	Z14	X15	Y15	Z15	X16	Y16	Z16	X17	Y17	Z17	X18	Y18	Z18	X19	Y19	Z19	X20	Y20	Z20	X21	Y21	Z21	X22	Y22	Z22	X23	Y23	Z23	X24	Y24	Z24	X25	Y25	Z25	X26	Y26	Z26	X27	Y27	Z27	X28	Y28	Z28	X29	Y29	Z29	X30	Y30	Z30	X31	Y31	Z31	X32	Y32	Z32	X33	Y33	Z33	X34	Y34	Z34	

2362	47.22000	1023.042	572.214	-374.603	1047.209	482.192	-373.646	1003.117	104.634	-420.986	917.641	68.492	-476.577	1117.518	39.412	-407.879	1153.513	80.662	-467.934	986.279	552.775	-705.903	941.031	444.170	-700.136	636.246	270.995	-677.213	565.777	326.321	-637.310	677.302	118.756	-613.816	627.285	125.072	-674.302	1045.453	362.452	-383.658	971.306	480.674	-374.990	961.476	365.481	-381.508	893.596	520.405	-712.596	797.166	444.777	-706.332	977.891	899.547	-344.050	1020.324	793.795	-345.280	987.469	743.751	-341.406	874.468	853.150	-342.372	923.270	747.007	-355.009	1007.704	829.723	-713.009	1047.882	696.934	-715.329	892.751	797.697	-712.715	939.041	667.767	-706.693	962.946	1082.231	-397.006	774.505	1091.688	-488.395	972.902	1078.640	-650.983	781.579	1086.915	-569.520	882.196	1588.974	-528.860	933.707	1553.230	-361.843	945.152	1535.764	-708.159	1017.441	1502.350	-523.770
2363	47.24000	1010.606	571.735	-374.854	1033.067	481.002	-374.615	979.359	105.060	-422.072	892.890	69.882	-476.774	1093.102	39.706	-408.206	1129.451	79.138	-468.948	1006.737	562.318	-707.562	965.946	451.252	-700.069	662.598	275.688	-676.837	587.831	328.276	-640.022	710.707	128.292	-608.517	661.762	129.782	-670.034	1028.711	361.413	-384.716	957.179	481.305	-374.274	944.891	366.006	-381.597	918.110	526.403	-717.647	822.360	449.785	-710.535	974.401	900.160	-343.451	1011.079	793.612	-344.683	978.197	744.700	-340.922	868.609	856.391	-341.798	914.817	749.219	-354.130	1013.404	837.644	-713.356	1059.315	707.179	-715.816	900.560	801.013	-710.604	952.010	673.343	-705.997	961.651	1084.909	-394.321	773.226	1095.005	-486.720	970.383	1082.938	-648.629	780.058	1090.192	-567.709	879.962	1592.610	-526.892	932.262	1556.682	-360.020	940.946	1538.594	-707.200	1015.708	1506.150	-522.810
2364	47.26000	995.289	571.135	-375.626	1016.515	480.346	-375.870	955.585	105.703	-423.524	868.357	70.859	-476.980	1068.281	39.886	-408.737	1105.191	78.181	-469.754	1027.072	571.791	-708.824	989.348	458.387	-699.790	689.515	275.458	-676.498	611.436	323.755	-640.115	747.809	132.842	-606.633	697.936	129.926	-667.174	1010.283	360.712	-385.960	940.687	481.846	-375.149	926.419	366.803	-382.489	939.711	531.477	-722.276	845.861	452.808	-714.254	968.609	901.283	-342.920	1003.458	793.049	-345.090	969.048	745.392	-340.961	862.946	860.514	-340.822	905.670	751.893	-354.261	1019.148	846.594	-712.391	1070.452	717.757	-715.400	907.323	804.585	-710.778	964.462	679.653	-706.574	960.214	1088.116	-391.928	772.236	1099.395	-484.838	970.264	1088.610	-645.849	778.520	1095.312	-566.283	877.526	1596.627	-525.260	930.485	1561.102	-358.660	936.812	1542.475	-706.125	1013.411	1510.443	-521.775
2365	47.28000	978.903	571.231	-376.339	998.019	479.961	-376.570	930.409	106.514	-423.837	843.494	71.608	-477.825	1043.327	39.869	-409.115	1080.465	77.610	-470.280	1045.519	580.283	-709.377	1010.939	465.891	-699.189	717.882	269.823	-675.327	637.395	313.124	-638.406	787.516	132.784	-606.200	736.464	125.549	-665.438	989.740	360.391	-386.458	922.015	482.618	-376.322	906.062	367.988	-383.614	958.484	535.963	-725.789	868.409	453.206	-716.895	964.679	901.756	-343.749	992.803	792.514	-345.035	959.345	746.307	-341.058	856.781	864.871	-339.826	895.998	755.061	-354.247	1024.328	856.584	-711.345	1081.516	730.144	-714.754	915.315	809.962	-711.892	977.243	687.338	-708.409	958.582	1091.277	-390.330	771.093	1104.663	-483.746	968.126	1093.501	-644.022	777.490	1101.405	-565.368	875.096	1600.850	-523.658	928.858	1566.049	-357.396	933.136	1546.959	-705.044	1011.341	1514.956	-520.882
2366	47.30000	961.228	571.564	-377.181	977.387	479.725	-377.261	905.723	107.061	-424.231	818.325	72.368	-477.928	1018.217	39.858	-409.274	1055.702	77.239	-470.313	1058.929	590.863	-708.965	1030.050	473.526	-698.976	749.713	260.090	-674.406	665.722	297.067	-636.376	829.795	128.680	-606.770	778.611	117.632	-665.297	967.785	360.623	-386.082	901.794	483.797	-377.600	884.224	369.295	-384.659	973.988	539.248	-726.709	889.269	451.323	-717.093	959.031	902.754	-344.051	987.959	792.575	-346.282	949.142	747.575	-340.995	850.448	869.169	-339.796	885.658	758.062	-354.475	1029.909	867.628	-710.143	1092.299	743.890	-713.659	921.833	816.263	-714.140	988.239	696.094	-711.195	958.006	1094.351	-389.261	770.425	1109.988	-482.818	966.539	1098.503	-642.746	776.572	1107.064	-564.606	872.916	1604.960	-522.243	927.527	1571.070	-356.439	929.799	1551.554	-703.830	1009.196	1519.366	-520.191
2367	47.32000	942.745	572.307	-377.450	956.878	480.518	-376.592	881.112	107.648	-424.273	793.686	73.073	-478.337	993.258	39.788	-409.356	1031.235	76.708	-470.548	1069.560	600.328	-708.442	1047.860	480.486	-698.932	783.529	247.403	-674.097	696.891	276.291	-634.482	874.781	121.946	-608.552	824.576	107.538	-666.685	945.583	361.174	-385.766	881.091	485.220	-378.029	862.124	370.923	-385.090	986.150	542.074	-726.155	908.066	448.047	-716.251	952.827	903.866	-344.674	978.068	792.592	-347.130	938.181	748.847	-340.840	843.257	873.658	-339.515	874.700	761.805	-354.845	1033.479	877.328	-708.729	1099.764	755.554	-712.282	927.552	822.810	-717.916	997.664	705.328	-714.847	955.878	1096.771	-388.715	769.331	1114.738	-482.412	965.312	1103.373	-641.991	775.615	1111.891	-564.312	870.960	1608.601	-520.899	926.466	1575.638	-355.563	927.008	1555.779	-702.751	1007.201	1523.639	-519.488
2368	47.34000	923.275	572.908	-378.251	935.947	481.345	-376.640	856.812	108.215	-424.383	769.123	73.771	-478.621	968.446	39.720	-409.351	1006.401	76.319	-470.357	1077.466	608.310	-708.424	1062.408	486.922	-699.932	819.233	231.380	-673.605	730.861	251.689	-631.858	923.325	114.649	-612.024	873.008	96.663	-669.364	923.450	362.096	-385.510	860.315	486.950	-378.012	840.083	372.820	-385.117	995.488	543.988	-723.666	925.600	443.604	-714.657	946.102	904.582	-345.496	967.775	792.633	-347.964	926.405	749.845	-340.699	835.771	878.091	-339.545	863.153	765.072	-355.467	1036.423	885.628	-707.071	1106.056	764.933	-710.818	933.812	828.549	-720.573	1005.373	713.243	-717.221	954.418	1098.883	-388.468	767.911	1118.847	-482.692	964.189	1107.670	-641.422	774.593	1115.849	-564.302	869.278	1611.807	-519.566	925.494	1579.488	-354.840	924.169	1559.604	-701.969	1005.363	1527.342	-518.791
2369	47.36000	903.996	574.342	-378.291	914.671	482.250	-376.946	832.297	108.712	-424.426	744.374	74.790	-478.388	943.266	39.710	-409.225	981.759	76.514	-469.788	1082.384	614.412	-708.184	1074.945	492.059	-701.303	856.517	213.749	-672.946	767.837	224.669	-628.547	973.789	107.389	-616.526	924.042	85.044	-672.914	900.844	363.168	-385.371	839.144	488.770	-378.485	817.693	374.816	-385.558	1001.664	543.634	-720.698	941.962	437.484	-712.445	939.122	904.985	-346.348	956.649	792.148	-348.619	913.840	751.287	-343.525	827.866	882.195	-339.942	851.133	768.224	-355.923	1038.304	891.870	-705.601	1108.925	773.058	-710.446	935.579	834.278	-722.366	1009.707	719.678	-719.012	952.300	1100.157	-388.153	766.495	1122.193	-483.335	963.118	1110.907	-640.795	773.457	1119.287	-565.055	867.966	1614.366	-518.286	924.715	1582.300	-354.102	921.757	1562.790	-701.287	1004.035	1530.191	-518.341
2370	47.38000	883.976	575.192	-379.091	892.661	483.210	-377.547	807.753	109.262	-424.412	719.321	76.113	-477.991	918.185	39.446	-409.260	956.833	75.891	-469.892	1083.673	618.053	-708.259	1084.881	494.846	-702.460	895.796	195.542	-673.267	808.714	196.425	-625.642	1025.807	101.226	-622.355	977.033	74.476	-677.361	877.644	364.206	-385.359	817.366	490.515	-379.702	794.577	376.863	-386.496	1006.687	539.890	-717.478	957.372	427.760	-709.845	931.740	904.670	-347.362	945.331	791.159	-349.314	900.746	754.098	-345.386	819.843	885.811	-340.449	839.099	771.064	-356.897	1038.889	895.458	-704.333	1110.413	777.163	-708.518	936.094	837.933	-725.774	1012.074	723.052	-720.599	950.056	1100.562	-387.713	765.019	1124.799	-484.703	962.345	1112.910	-640.125	772.237	1122.136	-566.709	867.005	1616.123	-517.192	924.036	1583.915	-353.477	919.477	1565.310	-700.641	1002.817	1531.928	-517.955
2371	47.40000	863.867	575.885	-379.856	870.457	484.029	-377.864	783.471	109.867	-424.440	694.818	77.277	-477.611	893.221	39.383	-409.238	932.308	75.397	-469.815	1083.554	618.407	-706.620	1093.569	495.365	-703.033	938.150	176.898	-673.360	852.548	167.634	-622.809	1078.783	96.609	-628.928	1031.169	65.953	-683.258	854.170	365.252	-385.333	795.276	492.366	-381.056	771.360	378.771	-387.777	1010.455	532.250	-715.296	973.450	415.167	-707.380	924.204	904.053	-348.335	934.197	790.242	-350.550	888.395	753.773	-346.269	811.975	888.983	-341.304	827.076	773.756	-357.933	1038.241	896.142	-703.304	1109.773	777.792	-706.765	936.276	838.862	-727.895	1011.515	724.021	-721.640	947.212	1099.748	-387.679	763.488	1126.433	-486.518	961.578	1113.466	-639.669	771.181	1124.053	-568.502	866.244	1616.895	-516.172	923.516	1584.262	-352.975	917.604	1567.069	-699.983	1002.059	1532.613	-517.655
